<svg width="0" height="0" class="hidden">
  <symbol xmlns="http://www.w3.org/2000/svg" viewBox="0 0 20 20" id="facebook1">
    <g clip-path="url(#a)">
      <path
        d="M13.33 3.32h1.827V.14a23.578 23.578 0 0 0-2.66-.14C9.864 0 8.06 1.656 8.06 4.7v2.8H5.156v3.555H8.06V20h3.562v-8.944h2.787l.442-3.555h-3.23V5.05c0-1.027.277-1.73 1.709-1.73Z">
      </path>
    </g>
    <defs>
      <clipPath id="a">
        <path d="M0 0h20v20H0z"></path>
      </clipPath>
    </defs>
  </symbol>

  <symbol xmlns="http://www.w3.org/2000/svg" viewBox="0 0 20 20" id="instagram1">
    <g clip-path="url(#a)">
      <path
        d="M19.98 5.88c-.046-1.063-.218-1.793-.465-2.426A4.88 4.88 0 0 0 18.36 1.68a4.922 4.922 0 0 0-1.77-1.153C15.952.281 15.226.11 14.163.063 13.093.012 12.753 0 10.037 0 7.322 0 6.982.012 5.915.059 4.852.105 4.122.277 3.49.523A4.88 4.88 0 0 0 1.715 1.68 4.924 4.924 0 0 0 .563 3.45C.316 4.087.145 4.813.098 5.876c-.051 1.07-.063 1.41-.063 4.126 0 2.715.012 3.055.059 4.122.047 1.063.219 1.793.465 2.426a4.932 4.932 0 0 0 1.156 1.774c.5.508 1.106.902 1.77 1.152.637.247 1.364.419 2.426.465 1.067.047 1.407.059 4.122.059 2.716 0 3.056-.012 4.122-.059 1.063-.046 1.793-.218 2.426-.464a5.116 5.116 0 0 0 2.927-2.927c.246-.637.418-1.364.465-2.426.047-1.067.058-1.407.058-4.122s-.004-3.055-.05-4.122Zm-1.8 8.166c-.044.977-.208 1.504-.345 1.856a3.318 3.318 0 0 1-1.898 1.898c-.352.137-.883.301-1.856.344-1.055.047-1.371.059-4.04.059-2.668 0-2.989-.012-4.04-.059-.977-.043-1.504-.207-1.856-.344a3.077 3.077 0 0 1-1.148-.746 3.11 3.11 0 0 1-.747-1.148c-.136-.352-.3-.883-.343-1.856-.047-1.055-.059-1.372-.059-4.04 0-2.669.012-2.99.059-4.04.043-.977.207-1.504.343-1.856A3.04 3.04 0 0 1 3 2.965a3.105 3.105 0 0 1 1.15-.746c.35-.137.882-.3 1.855-.344 1.055-.046 1.371-.058 4.04-.058 2.672 0 2.989.012 4.04.058.976.043 1.504.207 1.856.344.433.16.828.414 1.148.746.332.325.586.715.747 1.15.136.35.3.882.343 1.855.047 1.055.059 1.371.059 4.04 0 2.668-.012 2.98-.059 4.036Z">
      </path>
      <path
        d="M10.037 4.864A5.139 5.139 0 0 0 4.9 10.002a5.139 5.139 0 1 0 5.138-5.138Zm0 8.47a3.333 3.333 0 1 1 .001-6.666 3.333 3.333 0 0 1 0 6.667ZM16.578 4.661a1.2 1.2 0 1 1-2.4 0 1.2 1.2 0 0 1 2.4 0Z">
      </path>
    </g>
    <defs>
      <clipPath id="a">
        <path d="M0 0h20v20H0z"></path>
      </clipPath>
    </defs>
  </symbol>
  <symbol xmlns="http://www.w3.org/2000/svg" viewBox="0 0 20 20" id="linkedin1">
    <g clip-path="url(#a)">
      <path
        d="M19.995 20H20v-7.336c0-3.588-.773-6.352-4.967-6.352-2.017 0-3.37 1.106-3.923 2.156h-.058V6.647H7.074v13.352h4.142v-6.611c0-1.741.33-3.425 2.486-3.425 2.124 0 2.155 1.987 2.155 3.536V20h4.138ZM.33 6.647h4.147V20H.33V6.647ZM2.402 0A2.402 2.402 0 0 0 0 2.402c0 1.325 1.076 2.424 2.402 2.424 1.325 0 2.401-1.098 2.401-2.424A2.403 2.403 0 0 0 2.402 0Z">
      </path>
    </g>
    <defs>
      <clipPath id="a">
        <path d="M0 0h20v20H0z"></path>
      </clipPath>
    </defs>
  </symbol>
  <symbol xmlns="http://www.w3.org/2000/svg" viewBox="0 0 69 56" id="Logo">
    <g clip-path="url(#a)">
      <path
        d="m39.15 16.87-1.31-1a1 1 0 0 0-1.4.14L18.31 36.83l.28.31L23.08 33a.69.69 0 0 1 .27-1.33.68.68 0 0 1 .65.48l5.92-5.49a.51.51 0 0 1 .64 0l.3.22a.5.5 0 0 0 .67-.08l7.74-8.68a.83.83 0 0 0-.12-1.25Z">
      </path>
      <path
        d="M47.67 22.73a40.449 40.449 0 0 1-13.12 6.15A71.154 71.154 0 0 1 20.28 31c.097.71.271 1.408.52 2.08 2.72 2.46 23.2-1.74 27.2-6.6.85-1.01-.33-3.75-.33-3.75ZM23.35 33a.68.68 0 1 1 .68-.68.669.669 0 0 1-.68.68ZM4 21.29l.16-.69 2.6.59c.215.396.347.831.39 1.28.05.475.02.955-.09 1.42a3.76 3.76 0 0 1-.86 1.74 3.43 3.43 0 0 1-1.54 1 3.65 3.65 0 0 1-1.89.07 3.51 3.51 0 0 1-1.67-.88 3.3 3.3 0 0 1-.95-1.57 3.78 3.78 0 0 1 0-2c.107-.49.3-.957.57-1.38a2.92 2.92 0 0 1 1-.93l.36.55a2.86 2.86 0 0 0-1.32 1.94A3.12 3.12 0 0 0 .79 24c.134.486.4.926.77 1.27.38.367.854.62 1.37.73.5.14 1.03.14 1.53 0 .48-.158.91-.437 1.25-.81.35-.403.59-.888.7-1.41a3.07 3.07 0 0 0-.12-1.91L4 21.29ZM9.66 15l-2.33 3.11 1 1.79-.46.62-3.7-6.75.43-.59 7.53 1.62-.47.62-2-.42ZM9 14.84l-4-.9 2 3.59 2-2.69ZM9 8.55l.6-.45 3.81 5.1 3.14-2.35.38.51-3.73 2.79L9 8.55ZM15.3 4.38l.67-.3 2.64 5.78 3.57-1.62.26.58-4.24 1.93-2.9-6.37ZM28.48 6.68l.15.63-4.82 1.13-1.6-6.82L26.89.53l.14.62-4 .93.57 2.42 3.52-.83.15.62-3.53.82.6 2.53 4.14-.96ZM35.35 6.93l-1.67-2.2c-.187.01-.373.01-.56 0l-1.88.06.07 2.22h-.74l-.23-7L33 0a3.16 3.16 0 0 1 2.12.57 2.2 2.2 0 0 1 .82 1.74c.03.494-.1.985-.37 1.4a2.33 2.33 0 0 1-1.16.85l1.75 2.34-.81.03Zm-.7-3.29a1.59 1.59 0 0 0 .51-1.31 1.608 1.608 0 0 0-.59-1.28A2.43 2.43 0 0 0 33 .64l-1.9.07.12 3.5 1.86-.06a2.4 2.4 0 0 0 1.57-.51ZM40.64 5.07l-.36 2.39-.73-.11.37-2.35-2.07-5 .78.12 1.77 4.26 3-3.53.7.15-3.46 4.07ZM50.53 4.65l.87 1.13-.38.3-.87-1.16-.55 1.31-.42-.18.56-1.31-1.44.19v-.48l1.42-.16-.88-1.13.39-.3L50 4l.54-1.32.43.18-.51 1.34L51.9 4v.49l-1.37.16ZM53.87 12.71a2.77 2.77 0 0 1-.43-1.21l.59-.26c.044.396.174.778.38 1.12.223.383.515.722.86 1a2.35 2.35 0 0 0 1.3.63 1.09 1.09 0 0 0 .94-.39.9.9 0 0 0 .23-.68 1.841 1.841 0 0 0-.24-.69 10.48 10.48 0 0 0-.61-.89 9.087 9.087 0 0 1-.72-1.1 2 2 0 0 1-.26-.94c0-.37.139-.728.39-1a1.83 1.83 0 0 1 .83-.57 2 2 0 0 1 1.11 0 3.68 3.68 0 0 1 1.27.72c.308.256.58.552.81.88.212.304.371.642.47 1l-.57.3a3.52 3.52 0 0 0-.44-.94 3.611 3.611 0 0 0-.67-.69 2.22 2.22 0 0 0-1.29-.61 1.08 1.08 0 0 0-.94.41.86.86 0 0 0-.23.68c.023.252.106.495.24.71.14.23.34.53.61.89.268.34.508.702.72 1.08a2 2 0 0 1 .27.94c0 .37-.139.728-.39 1a1.78 1.78 0 0 1-.84.57 1.92 1.92 0 0 1-1.11 0 3.71 3.71 0 0 1-1.28-.72 4.549 4.549 0 0 1-1-1.24ZM63.93 14.17l-1.41-2 .52-.37 3.25 4.64-.52.37-1.41-2-5.22 3.65-.42-.61 5.21-3.68ZM61.69 22.39a3.319 3.319 0 0 1 1-1.56 3.55 3.55 0 0 1 1.64-.83 3.62 3.62 0 0 1 1.88.07 3.56 3.56 0 0 1 1.53 1 3.75 3.75 0 0 1 .85 1.74 3.811 3.811 0 0 1 0 1.93 3.421 3.421 0 0 1-1 1.56 3.71 3.71 0 0 1-3.57.78 3.35 3.35 0 0 1-1.53-1 3.76 3.76 0 0 1-.85-1.73 3.849 3.849 0 0 1 .05-1.96ZM63 25.57c.334.38.767.66 1.25.81a3.1 3.1 0 0 0 2.9-.64c.37-.34.642-.77.79-1.25a3.22 3.22 0 0 0-.65-2.94 2.85 2.85 0 0 0-1.29-.81 3 3 0 0 0-1.54 0 2.76 2.76 0 0 0-1.36.69 2.79 2.79 0 0 0-.79 1.26 3 3 0 0 0 0 1.55 2.9 2.9 0 0 0 .69 1.33ZM60.93 34l2.59-1c0-.18.06-.36.11-.55l.49-1.81-2.12-.55.19-.71 6.76 1.81-.68 2.53a3.17 3.17 0 0 1-1.16 1.86 2.161 2.161 0 0 1-1.9.28 2.17 2.17 0 0 1-1.71-2.11l-2.76 1 .19-.75Zm3.35.28a1.8 1.8 0 0 0 2.51.67 2.39 2.39 0 0 0 .85-1.41l.48-1.8-3.39-.91-.48 1.8a2.41 2.41 0 0 0 .03 1.65ZM57.34 40.44l-.51-.39 3-3.95 5.58 4.23-2.9 3.83-.51-.39 2.45-3.23-2-1.51-2.19 2.89-.5-.38L62 38.65l-2.07-1.57-2.59 3.36ZM55 48.41l-1.43.08v-.48L55 48l-.77-1.19.39-.25.76 1.2.62-1.34.43.23-.68 1.26 1.43-.08v.49h-1.45l.77 1.19-.39.25-.76-1.2-.66 1.3-.42-.24.73-1.21ZM42 47.61l1.21.67a3.109 3.109 0 0 1 2-1.58 3.16 3.16 0 0 1 1.23-.13 2 2 0 0 1 1 .36c.266.2.463.48.56.8.12.395.1.82-.06 1.2a5 5 0 0 1-1 1.39c.33.177.636.395.91.65.189.195.329.431.41.69a1.332 1.332 0 0 1-.26 1.17 1.92 1.92 0 0 1-1.12.77c-.4.152-.84.152-1.24 0a1.25 1.25 0 0 1-.72-.85 1.36 1.36 0 0 1 .07-1 4.8 4.8 0 0 1 .89-1.23l-2.41-1.34c-.092.47-.112.953-.06 1.43h-.61a4.778 4.778 0 0 1 .2-1.74l-1.26-.7.26-.56Zm1.74 1 2.65 1.47a4.18 4.18 0 0 0 .85-1.15c.11-.29.11-.61 0-.9a1.08 1.08 0 0 0-.7-.75 2 2 0 0 0-1.28 0 2.4 2.4 0 0 0-1.56 1.3l.04.03Zm3.76 4a.9.9 0 0 0 .08-.74 1.23 1.23 0 0 0-.32-.52 4.322 4.322 0 0 0-.83-.55 5.22 5.22 0 0 0-.79 1 1 1 0 0 0-.08.74.84.84 0 0 0 .44.53c.255.096.535.096.79 0a1.19 1.19 0 0 0 .67-.47l.04.01ZM29.81 55.32l.14-7h.71l-.11 5.6 2.84-4.66h.35L36.4 54l.1-5.57h.71l-.13 7h-.61l-2.94-5.23-3.11 5.13-.61-.01ZM26.33 48a3.41 3.41 0 0 1 .91 3.46 3.56 3.56 0 0 1-.95 1.63 3.36 3.36 0 0 1-1.61.88 3.88 3.88 0 0 1-1.94-.06 3.76 3.76 0 0 1-1.68-.91 3.36 3.36 0 0 1-.93-1.58 3.69 3.69 0 0 1 1-3.52 3.45 3.45 0 0 1 1.58-.9 3.85 3.85 0 0 1 1.93.06 3.77 3.77 0 0 1 1.69.94Zm-3.41-.35a2.67 2.67 0 0 0-1.29.72 2.89 2.89 0 0 0-.76 1.33c-.14.5-.14 1.03 0 1.53.118.487.371.93.73 1.28a3.07 3.07 0 0 0 1.35.77 3.14 3.14 0 0 0 1.55 0c.49-.12.938-.369 1.3-.72a2.94 2.94 0 0 0 .76-1.33 2.88 2.88 0 0 0 0-1.54 2.81 2.81 0 0 0-.74-1.28 3 3 0 0 0-1.36-.76 2.89 2.89 0 0 0-1.54 0ZM15.35 43l.27 2.75c.171.073.339.157.5.25l1.63.94 1.1-1.94.65.37L16 51.4l-2.28-1.31a3.18 3.18 0 0 1-1.5-1.6 2.2 2.2 0 0 1 .22-1.9c.232-.438.6-.79 1.05-1a2.32 2.32 0 0 1 1.44-.11l-.29-2.94.71.46Zm-1.14 3.16a1.802 1.802 0 0 0-1.29 2.25c.234.518.64.938 1.15 1.19l1.61.93 1.75-3-1.61-.93a2.47 2.47 0 0 0-1.61-.49v.05ZM9.43 38.31l.45-.45 3.45 3.55-5 4.88L5 42.85l.46-.45 2.83 2.91L10 43.58 7.52 41l.48-.46 2.53 2.6 1.86-1.81-2.96-3.02ZM2 34.38 2.24 33l.47.07-.27 1.42L3.77 34l.16.44-1.35.46 1.11.94-.32.36-1.07-1-.25 1.42-.48-.09.28-1.42-1.34.48-.15-.39 1.34-.47-1.11-.93.33-.36 1.08.94Z">
      </path>
    </g>
    <defs>
      <clipPath id="a">
        <path d="M0 0h68.93v55.46H0z"></path>
      </clipPath>
    </defs>
  </symbol>
  <symbol xmlns="http://www.w3.org/2000/svg" viewBox="0 0 20 20" id="twitter1">
    <g clip-path="url(#a)">
      <path
        d="M20 3.799a8.549 8.549 0 0 1-2.363.647 4.077 4.077 0 0 0 1.804-2.266 8.192 8.192 0 0 1-2.6.992A4.099 4.099 0 0 0 9.75 5.976c0 .325.027.638.095.935-3.409-.166-6.425-1.8-8.451-4.288A4.128 4.128 0 0 0 .83 4.694c0 1.42.732 2.679 1.821 3.407A4.05 4.05 0 0 1 .8 7.597v.045a4.119 4.119 0 0 0 3.285 4.03 4.09 4.09 0 0 1-1.075.134c-.262 0-.527-.015-.776-.07.531 1.624 2.038 2.818 3.831 2.856a8.238 8.238 0 0 1-5.084 1.75A7.67 7.67 0 0 1 0 16.284a11.543 11.543 0 0 0 6.29 1.84c7.545 0 11.67-6.25 11.67-11.668 0-.18-.006-.356-.015-.53A8.179 8.179 0 0 0 20 3.8Z">
      </path>
    </g>
    <defs>
      <clipPath id="a">
        <path d="M0 0h20v20H0z"></path>
      </clipPath>
    </defs>
  </symbol>
</svg>